<?xml version="1.0" encoding="UTF-8" standalone="no"?>
<!-- Generator: Adobe Illustrator 27.5.0, SVG Export Plug-In . SVG Version: 6.00 Build 0)  -->

<svg
   version="1.1"
   x="0px"
   y="0px"
   viewBox="0 0 2145.4351 2180.7766"
   xml:space="preserve"
   id="svg9"
   width="2145.4351"
   height="2180.7766"
   xmlns="http://www.w3.org/2000/svg"
   xmlns:svg="http://www.w3.org/2000/svg"><defs
   id="defs9" />

<g
   id="Objects"
   transform="translate(-44.3827,-12.44005)">
	<path
   style="fill:#ff3468;fill-opacity:1;stroke:#ffd6ce;stroke-width:0;stroke-dasharray:none;stroke-opacity:1"
   d="m 1136.7621,413.39926 c 0,0 139.9886,-109.76501 317.7804,-192.65595 136.3,-63.54644 294.8176,-111.29853 429.5122,-81.69222 37.4246,8.22604 73.01,22.42408 105.7688,43.91465 75.9495,49.82475 136.7051,138.84817 169.9598,283.52684 C 2359.2832,1334.4404 1513.127,2255.3784 1148.8015,2189.9198 784.47593,2124.4612 -98.669045,1705.2311 64.21799,562.13379 227.10502,-580.96353 1136.7621,413.39926 1136.7621,413.39926 Z"
   id="path9" /><g
   id="g1">
		<path
   style="fill:#ffd6ce;fill-opacity:1"
   d="m 1658.829,1784.441 c -16.786,54.499 -48.682,97.678 -85.456,128.784 -80.784,68.337 -187.937,80.164 -281.4,31.075 -64.047,-33.639 -125.19,-94.923 -191.973,-92.835 -66.783,-2.088 -127.925,59.196 -191.973,92.835 -93.463,49.088 -200.617,37.261 -281.4,-31.075 -36.773,-31.106 -68.67,-74.285 -85.456,-128.784 -16.786,-54.499 -16.977,-121.048 5.329,-175.378 19.528,-47.569 53.792,-81.545 89.145,-107.394 35.36,-25.841 73.476,-44.683 107.259,-73.963 127.939,-110.894 163.009,-316.273 357.095,-316.273 194.086,0 229.156,205.379 357.096,316.273 33.784,29.28 71.9,48.121 107.259,73.963 35.353,25.849 69.617,59.826 89.145,107.394 22.306,54.33 22.116,120.879 5.33,175.378 z"
   id="path1" />
	</g>
	<path
   style="fill:#ffd6ce;fill-opacity:1"
   d="m 1041.145,788.6 c 1.949,114.079 -66.029,213.729 -171.112,223.511 C 764.95,1021.893 668.416,907.93 655.743,771.798 642.353,627.96 748.889,414.917 854.504,416.493 974.435,418.282 1038.7,645.471 1041.145,788.6 Z"
   id="path2" />
	<g
   id="g3">
		
	</g>
	<path
   style="fill:#ffd6ce;fill-opacity:1"
   d="m 656.819,1083.733 c 19.246,99.589 -24.955,197.295 -115.463,222.016 -90.508,24.721 -192.556,-60.223 -224.582,-177.473 -33.839,-123.887 26.689,-326.81 119.409,-341.668 105.288,-16.872 196.489,172.176 220.636,297.125 z"
   id="path4" />
	<g
   id="g5">
		
	</g>
	<path
   style="fill:#ffd6ce;fill-opacity:1"
   d="m 1158.855,788.6 c -1.949,114.079 66.029,213.729 171.113,223.511 105.083,9.782 201.617,-104.181 214.29,-240.313 13.39,-143.838 -93.146,-356.881 -198.761,-355.305 -119.932,1.789 -184.197,228.978 -186.642,372.107 z"
   id="path6" />
	<g
   id="g7">
		
	</g>
	<path
   style="fill:#ffd6ce;fill-opacity:1"
   d="m 1543.181,1083.733 c -19.246,99.589 24.955,197.295 115.463,222.016 90.508,24.722 192.556,-60.223 224.582,-177.473 33.839,-123.887 -26.689,-326.81 -119.409,-341.668 -105.288,-16.872 -196.489,172.176 -220.636,297.125 z"
   id="path8" />
	<g
   id="g9">
		
	</g>
</g>
</svg>
